HIERARCHY
ROOT Hips
{
    OFFSET 0.000000 0.000000 0.000000
    CHANNELS 6 Xposition Yposition Zposition Zrotation Xrotation Yrotation
        JOINT Chest
        {
            OFFSET -0.000000 31.471069 -0.000000
            CHANNELS 3 Zrotation Xrotation Yrotation
            JOINT Neck
            {
                OFFSET -0.000000 23.202770 0.000000
                CHANNELS 3 Zrotation Xrotation Yrotation
                JOINT Head
                {
                    OFFSET -0.000000 11.000000 0.000000
                    CHANNELS 3 Zrotation Xrotation Yrotation
                    End Site
                    {
                        OFFSET -0.000000 17.000000 0.000000
                    }
                }
            }
            JOINT LeftCollar
            {
                OFFSET -0.000000 23.202770 0.000000
                CHANNELS 3 Zrotation Xrotation Yrotation
                JOINT LeftShoulder
                {
                    OFFSET 21.000000 -0.000000 0.000000
                    CHANNELS 3 Zrotation Xrotation Yrotation
                    JOINT LeftElbow
                    {
                        OFFSET 23.506504 0.000000 0.000000
                        CHANNELS 3 Zrotation Xrotation Yrotation
                        JOINT LeftWrist
                        {
                            OFFSET 26.183235 0.000000 0.000000
                            CHANNELS 3 Zrotation Xrotation Yrotation
                            End Site
                            {
                                OFFSET 0.000000 -15.000001 0.000000
                            }
                        }
                    }
                }
            }
            JOINT RightCollar
            {
                OFFSET -0.000000 23.202770 0.000000
                CHANNELS 3 Zrotation Xrotation Yrotation
                JOINT RightShoulder
                {
                    OFFSET -21.000000 0.000000 0.000000
                    CHANNELS 3 Zrotation Xrotation Yrotation
                    JOINT RightElbow
                    {
                        OFFSET -23.506504 0.000000 0.000000
                        CHANNELS 3 Zrotation Xrotation Yrotation
                        JOINT RightWrist
                        {
                            OFFSET -26.183235 0.000000 0.000000
                            CHANNELS 3 Zrotation Xrotation Yrotation
                            End Site
                            {
                                OFFSET -0.000000 -15.000001 0.000000
                            }
                        }
                    }
                }
            }
        }
    JOINT LeftHip
    {
        OFFSET 12.000000 0.000000 0.000000
        CHANNELS 3 Zrotation Xrotation Yrotation
        JOINT LeftKnee
        {
            OFFSET -0.000000 -41.026867 0.000000
            CHANNELS 3 Zrotation Xrotation Yrotation
            JOINT LeftAnkle
            {
                OFFSET -0.000000 -42.711906 0.000000
                CHANNELS 3 Zrotation Xrotation Yrotation
                End Site
                {
                    OFFSET -0.000000 -5.000000 17.000000
                }
            }
        }
    }
    JOINT RightHip
    {
        OFFSET -12.000000 0.000000 0.000000
        CHANNELS 3 Zrotation Xrotation Yrotation
        JOINT RightKnee
        {
            OFFSET -0.000000 -41.026867 0.000000
            CHANNELS 3 Zrotation Xrotation Yrotation
            JOINT RightAnkle
            {
                OFFSET -0.000000 -42.711906 0.000000
                CHANNELS 3 Zrotation Xrotation Yrotation
                End Site
                {
                    OFFSET -0.000000 -5.000000 17.000000
                }
            }
        }
    }
}
MOTION
Frames:    5
Frame Time:    0.010000
42.501575    90.783737    -81.141235    0.338167    -3.253803    -54.868080    4.607617    7.219315    -3.652778    7.796378    -2.138204    7.562322    -17.565054    -12.139908    5.681331    -22.744825    -0.000705    0.173857    -30.210051    42.542736    -35.531319    8.046630    -4.970020    -63.351109    121.051926    20.712902    48.436565    24.820869    -1.454186    -6.474608    16.681442    59.887470    36.666679    -10.959171    -5.633477    54.074818    -143.542053    -11.693002    -18.611187    7.826575    -11.180260    1.262631    -3.566658    17.950205    -14.071998    -8.372980    -10.530603    28.770357    2.513575    -1.822876    -5.141241    -0.929674    8.261012    -7.754062    -0.564157    -3.524682    -26.260965    
42.611351    90.810760    -81.068443    0.376830    -3.250691    -55.139275    4.484318    7.316473    -3.453028    7.560451    -2.383560    8.319329    -17.207283    -12.420168    6.293955    -22.821301    -0.183327    1.781353    -29.500917    42.318775    -36.309620    8.347593    -5.277798    -63.308670    120.665504    20.383770    48.785168    24.728252    -1.259526    -4.926629    16.927807    60.318775    36.213318    -10.601848    -5.335096    54.247471    -143.945877    -11.877087    -17.823137    8.030689    -11.261601    0.679677    -4.136321    18.567627    -12.335477    -8.343679    -10.479248    28.471216    2.295445    -2.107172    -5.194636    -0.781223    8.619857    -7.624567    -0.679108    -3.519619    -26.075312    
42.699364    90.801758    -80.957535    0.426035    -3.254702    -55.387470    4.674846    7.638547    -3.295728    7.678759    -2.997428    8.417792    -17.502983    -12.201273    6.333377    -23.005032    -0.304862    2.035315    -29.034136    42.533325    -37.028225    8.440046    -5.273977    -63.195038    120.601097    20.176517    48.819706    24.253349    -1.168880    -5.183580    15.907171    60.231178    37.520348    -10.715778    -5.492579    54.228107    -144.484772    -11.794880    -17.987585    8.233914    -11.214532    -0.424196    -4.864540    19.131178    -11.582005    -9.260920    -11.620564    29.893913    2.063838    -2.385606    -5.193961    -0.618217    8.991122    -7.592841    -0.770896    -3.533670    -25.879042    
42.777706    90.815620    -80.894318    0.460341    -3.252878    -55.577316    4.702008    7.736410    -3.174652    7.707437    -3.265726    8.430613    -17.480560    -11.934084    6.369723    -23.073593    -0.375901    2.085120    -28.810799    42.646217    -37.264626    8.469392    -5.224387    -63.152706    120.539513    19.971935    48.937054    24.110634    -1.127748    -5.259144    15.558109    60.170269    37.919052    -10.697891    -5.467866    54.229092    -144.892838    -11.822873    -17.865440    8.390751    -11.221545    -1.087176    -5.384460    19.553762    -10.648956    -9.248573    -11.774808    30.290722    1.897752    -2.603934    -5.216452    -0.506787    9.276092    -7.510428    -0.906452    -3.502280    -25.745045    
42.869949    90.832123    -80.822502    0.501100    -3.247738    -55.790897    4.718187    7.826632    -3.045678    7.736818    -3.507865    8.448234    -17.443544    -11.674849    6.414422    -23.146004    -0.412856    2.134331    -28.554852    42.728344    -37.534172    8.466370    -5.218450    -63.103802    120.475922    19.706472    49.016407    23.968458    -1.142680    -5.322777    15.195812    60.170048    38.331287    -10.705126    -5.477854    54.188118    -145.368866    -11.882066    -17.766968    8.574163    -11.231310    -1.862676    -6.001853    20.024128    -9.546072    -9.100634    -11.834908    30.710581    1.710053    -2.861414    -5.247668    -0.383383    9.610312    -7.400256    -1.071243    -3.461962    -25.602343    
